<?xml version="1.0" encoding="UTF-8"?>
<svg id="a" xmlns="http://www.w3.org/2000/svg" viewBox="0 0 800 600.7"><path d="M242.56,250.84c53.52,16.38,108.3,19.46,163.28,19.49,55.01,.03,109.8-3.26,163.41-19.56,.16,1.04,.48,2.13,.49,3.22,.29,63.81-18.43,120.58-64.55,165.99-31.31,30.83-70.03,44.14-113.94,40.23-35.53-3.16-65.46-18.66-90.14-44.25-28.49-29.54-45.41-65.09-53.87-104.95-4.1-19.3-5.57-38.81-4.87-58.51,.02-.51,.12-1.03,.2-1.66Z"/><path d="M396.72,484.54c-18.05-.92-51.91-2.04-85.66-4.58-26.35-1.98-52.71-4.95-78.19-12.53-7.1-2.12-14.1-5.2-20.49-8.95-8.06-4.73-7.96-10.95-.46-16.51,8.84-6.56,19.16-9.93,29.64-12.49,14.8-3.63,29.76-6.63,44.7-9.68,1.22-.25,3.12,.92,4.15,1.97,15.09,15.41,32.03,28.39,52.01,36.58,58.94,24.17,113.49,15.85,163.37-23.52,5.25-4.14,9.73-9.25,14.74-13.72,1.1-.98,3.01-1.87,4.35-1.64,20.35,3.47,40.76,6.9,59.93,15,5.39,2.28,10.6,5.33,15.27,8.86,5.7,4.3,5.81,9.72-.16,13.57-6.31,4.08-13.33,7.47-20.48,9.76-19.88,6.35-40.53,8.94-61.19,11.38-35.12,4.15-70.38,5.62-121.52,6.52Z"/><path d="M426.13,221.49c22.62,.25,56.35,1.3,89.84,5.8,11.68,1.57,23.22,4.4,34.7,7.21,3,.73,5.5,3.53,8.23,5.38-2.74,1.75-5.27,4.46-8.25,5.1-15.15,3.26-30.32,6.75-45.67,8.76-38.87,5.09-78,6.47-117.17,5.71-35.98-.69-71.84-3.06-107.32-9.48-6.58-1.19-13.05-3.04-19.54-4.69-1.64-.42-3.24-1.11-4.73-1.92-3.62-1.97-3.74-4.3-.08-6.29,2.86-1.55,5.98-2.94,9.15-3.55,13.42-2.56,26.83-5.46,40.39-7.03,36.3-4.19,72.79-5.28,120.45-5Z"/><path d="M413.91,28.37c17.36,5.95,37.42,22.89,38.57,44.22,.72,13.29-4.53,24.4-13.6,33.33-8.78,8.64-18.6,16.26-28.19,24.05-11.69,9.49-22.03,20.01-27.81,34.23-6.53,16.05-3.82,30.63,7.23,43.81,.41,.49,.8,.99,.82,2.5-4.91-1.36-10.02-2.26-14.71-4.18-14.56-5.93-25.89-15.25-29.62-31.37-2.53-10.94,.25-21.1,5.74-30.65,7.17-12.48,17.72-21.77,28.8-30.58,10.51-8.35,21-16.74,31.33-25.31,2.81-2.33,5.18-5.26,7.45-8.15,11.59-14.78,11.56-29.94,0-44.72-1.78-2.27-3.71-4.42-6.02-7.17Z"/><path d="M550.12,382.31c2.07-3.99,3.72-7.59,5.78-10.93,.6-.97,2.53-1.95,3.55-1.7,30.07,7.31,58.19-10.82,70.17-30.82,10.57-17.64,9.46-38.6-3.66-54.09-10.04-11.85-23.31-15.58-38.4-13.85-1.53,.18-3.06,.36-5.03,.59,0-7.4-.06-14.49,.09-21.57,.02-.76,1.21-2.04,2.01-2.17,37.64-6.4,69.83,18.02,74.75,51.23,3.56,24.04-4.83,44.24-21.68,60.78-23.08,22.65-50.82,30.83-82.68,23.98-1.51-.32-2.97-.87-4.9-1.45Z"/><path d="M594.99,473.57c-65.39,27.54-133.51,42.25-204.67,39.89-60.9-2.01-119.3-16.28-175.36-39.88l.35-1.36c3.24,1.08,6.42,2.48,9.74,3.17,18.25,3.79,36.43,8.16,54.84,10.92,31.68,4.74,63.66,6.98,95.68,7.15,32.54,.17,65.13-.08,97.63-1.64,35.76-1.72,71.35-5.75,106.16-14.75,5.17-1.34,10.22-3.14,15.33-4.73,.1,.41,.19,.83,.29,1.24Z"/><path d="M471.7,53.32c16.63,7.74,29.63,17.43,32.09,36.3,1.08,8.29-1.55,15.82-5.61,22.95-6.74,11.84-17.1,20.19-27.36,28.69-8.62,7.14-17.48,14.2-22.99,24.18-2.42,4.38-4.51,9.39-5.02,14.3-1.13,10.71,5.76,19.61,17.57,24.39,1.31,.53,2.65,1.02,4.22,1.62-13.83,4.39-34.56-1.57-43.35-12.34-6.36-7.8-6.38-16.39-2.67-25.24,3.86-9.21,10.88-15.8,18.91-21.25,6.95-4.73,14.29-8.9,21.46-13.3,8.11-4.98,15.93-10.3,21.92-17.88,10.81-13.69,12.14-29.45,3.28-44.5-3.51-5.96-7.89-11.41-12.45-17.91Z"/><path d="M332.41,57.26c1.13,4.48,2.69,8.9,3.32,13.45,1.3,9.36-.79,18.34-4.39,26.93-4.05,9.69-8.43,19.25-12.56,28.9-4.96,11.58-8.84,23.35-6.81,36.28,1.21,7.72,4.33,14.48,10.03,20.96-6.6-1.63-11.45-4.68-15.84-8.43-9.49-8.13-15.87-17.96-15.35-31,.42-10.35,5.18-18.89,12.05-26.32,4.56-4.93,9.42-9.57,14.03-14.45,12.2-12.94,19.42-27.48,13.97-45.94l1.55-.39Z"/></svg>