<?xml version="1.0" encoding="iso-8859-1"?>
<!-- Uploaded to: SVG Repo, www.svgrepo.com, Generator: SVG Repo Mixer Tools -->
<!DOCTYPE svg PUBLIC "-//W3C//DTD SVG 1.1//EN" "http://www.w3.org/Graphics/SVG/1.1/DTD/svg11.dtd">
<svg fill="#000000" height="800px" width="800px" version="1.1" id="Capa_1" xmlns="http://www.w3.org/2000/svg" xmlns:xlink="http://www.w3.org/1999/xlink" 
	 viewBox="0 0 231.978 231.978" xml:space="preserve">
<path d="M219.311,26.862H12.667C5.682,26.862,0,32.545,0,39.529v152.92c0,6.984,5.682,12.666,12.667,12.666h206.645
	c6.984,0,12.667-5.682,12.667-12.666V39.529C231.978,32.545,226.295,26.862,219.311,26.862z M105.239,190.115H15v-65.361h90.239
	V190.115z M216.978,190.115h-96.739v-80.361H15V81.948h201.978V190.115z M216.978,66.948H15V41.862h201.978V66.948z M26.357,55.635
	c0-3.283,2.658-5.943,5.941-5.943c3.28,0,5.94,2.66,5.94,5.943s-2.66,5.938-5.94,5.938C29.015,61.573,26.357,58.918,26.357,55.635z
	 M45.6,55.635c0-3.283,2.66-5.943,5.941-5.943c3.281,0,5.941,2.66,5.941,5.943s-2.66,5.938-5.941,5.938
	C48.26,61.573,45.6,58.918,45.6,55.635z M93.922,145.488H25.126v-10h68.795V145.488z M93.922,163.488H25.126v-10h68.795V163.488z
	 M93.922,181.488H25.126v-10h68.795V181.488z"/>
</svg>